# xmcd
#
# Track frame offsets:
# 182
# 13840
# 29512
# 44347
# 56360
# 70175
# 83532
# 95652
# 109580
# 121715
# 136552
# 151520
# 165090
# 179802
# 192562
# 203490
# 216795
# 228902
# 242867
# 257585
# 271230
# 286955
# 302217
#
# Disc length: 4205 seconds
#
# Revision: 0
# Processed by: cddbd v1.4PL0 Copyright (c) Steve Scherf et al.
# Submitted via: Audion 3.0.2 (http://www.panic.com/audion/)
#
DISCID=2f106b17
DTITLE=Teddy Wilson - 1939-1941
DYEAR=1900
DGENRE=
TTITLE0=
TTITLE1=
TTITLE2=Moonray
TTITLE3=
TTITLE4=
TTITLE5=
TTITLE6=
TTITLE7=
TTITLE8=
TTITLE9=
TTITLE10=
TTITLE11=
TTITLE12=
TTITLE13=
TTITLE14=
TTITLE15=
TTITLE16=
TTITLE17=
TTITLE18=
TTITLE19=
TTITLE20=
TTITLE21=
TTITLE22=
EXTD=
EXTT0=
EXTT1=
EXTT2=
EXTT3=
EXTT4=
EXTT5=
EXTT6=
EXTT7=
EXTT8=
EXTT9=
EXTT10=
EXTT11=
EXTT12=
EXTT13=
EXTT14=
EXTT15=
EXTT16=
EXTT17=
EXTT18=
EXTT19=
EXTT20=
EXTT21=
EXTT22=
PLAYORDER=
